<svg xmlns="http://www.w3.org/2000/svg" width="112" height="73" viewBox="0 0 112 73">
  <defs>
    <style>
      .cls-1 {
        fill: #007bff;
        fill-rule: evenodd;
      }
    </style>
  </defs>
  <path id="f_π_copy" data-name="f(π) copy" class="cls-1" d="M35.172,21.979L36.3,17.8q2.93-10.82,5.352-13.262A7.148,7.148,0,0,1,46.734,2.1a3.576,3.576,0,0,1,3.008,1.953q1.758,2.7,3.32,2.7a1.78,1.78,0,0,0,1.953-2.07,4.036,4.036,0,0,0-1.777-2.93A7.822,7.822,0,0,0,48.1.26q-11.8,0-17.07,19.453-0.508,1.8-.625,2.266H22.672L22.164,23.7h7.7L23.883,45.924Q19.82,60.962,16.617,65.963t-7.891,5a3.994,3.994,0,0,1-2.266-.625,1.718,1.718,0,0,1-.937-1.367L5.6,68.307a7.067,7.067,0,0,0,.117-0.977,2.988,2.988,0,0,0-.781-1.973,2.583,2.583,0,0,0-2.07-.918,2.624,2.624,0,0,0-1.914.82,2.855,2.855,0,0,0-.82,2.109q0,2.265,2.637,3.789a11.612,11.612,0,0,0,5.918,1.524q5.9,0,10.82-5.312t9.063-20.82L34.625,23.7h6.836l0.508-1.719h-6.8Zm17.8,35.684a58.961,58.961,0,0,1-3.887-21.934,56.093,56.093,0,0,1,3.34-19.1A47.647,47.647,0,0,1,61.978.494h-2.7A55.4,55.4,0,0,0,46.666,36a57.486,57.486,0,0,0,13.047,37.07h2.7Q56.861,67.447,52.974,57.662ZM96.723,26.549q0.742-.624,2.461-4.57H71.449q-1.954,0-3.34.117a9.019,9.019,0,0,0-2.461.527A6.726,6.726,0,0,0,63.7,23.775a14.357,14.357,0,0,0-1.855,1.953,18.4,18.4,0,0,0-3.047,6.289H60.2a23.465,23.465,0,0,1,1.953-2.559,8.753,8.753,0,0,1,1.836-1.582,6,6,0,0,1,1.973-.8,11.727,11.727,0,0,1,2.363-.215h1.484q-0.234,3.555-.527,5.957T68.7,36.861a26.975,26.975,0,0,1-.606,2.715q-0.313,1.075-.586,1.973a29.8,29.8,0,0,1-1.387,3.4,14,14,0,0,1-1.895,3.008,18.922,18.922,0,0,0-1.23,1.543,7.225,7.225,0,0,0-.684,1.172,4.133,4.133,0,0,0-.312,1,5.893,5.893,0,0,0-.078.977,1.984,1.984,0,0,0,1.035,1.8,4.713,4.713,0,0,0,2.48.625,3.4,3.4,0,0,0,1.816-.547,6.043,6.043,0,0,0,1.816-2.3,8.886,8.886,0,0,0,.586-1.543q0.312-1.035.645-2.4T70.941,45.3q0.312-1.6.586-3.281T72,38.7q0.2-1.641.313-3.047l0.664-8.789h8.945q-0.117,1.211-.254,2.676T81.41,32.955q-0.117,1.954-.176,4.512t-0.059,6a32.1,32.1,0,0,0,.391,5.41,9.646,9.646,0,0,0,1.328,3.672,5.359,5.359,0,0,0,2.539,2.07,10.975,10.975,0,0,0,4.063.645,9.421,9.421,0,0,0,4.785-1.328,10.1,10.1,0,0,0,2.051-1.621,7.77,7.77,0,0,0,1.523-2.246l-1.25-.742q-2.031,3.2-4.883,3.2a5.244,5.244,0,0,1-2.324-.469,3.57,3.57,0,0,1-1.543-1.5A8.169,8.169,0,0,1,87,47.877a24.684,24.684,0,0,1-.273-3.984q0-3.281.059-5.9t0.137-4.668q0.078-2.051.215-3.633t0.293-2.832q1.679,0.117,2.773.176l1.836,0.1q0.742,0.039,1.191.039h0.879a4.14,4.14,0,0,0,2.617-.625h0Zm1.708,46.523A57.491,57.491,0,0,0,111.478,36,55.4,55.4,0,0,0,98.861.494H96.126a46.647,46.647,0,0,1,9.727,16.563,57.875,57.875,0,0,1,3.164,18.672,58.973,58.973,0,0,1-3.887,21.934q-3.888,9.785-9.394,15.41h2.7Z"/>
</svg>
